<svg xmlns="http://www.w3.org/2000/svg" width="20" height="20" viewBox="0 0 20 20">
    <g fill="none" fill-rule="evenodd">
        <g>
            <g>
                <path d="M0 0H20V20H0z"/>
                <path stroke="#DBDEE5" d="M9.952 15.472c.14.15.339.237.548.237.21 0 .409-.086.548-.237l5.007-5.43c1.238-1.344 1.263-3.39.057-4.76-.702-.797-1.726-1.264-2.81-1.282-1.06-.016-2.077.398-2.802 1.14C9.775 4.398 8.756 3.984 7.698 4c-1.084.018-2.108.485-2.81 1.282-1.205 1.37-1.181 3.416.057 4.76l5.007 5.43z"/>
            </g>
        </g>
    </g>
</svg>
