<svg xmlns="http://www.w3.org/2000/svg" width="60" height="60" viewBox="0 0 60 60">
    <g fill="none" fill-rule="evenodd">
        <g>
            <g>
                <g transform="translate(4 9)">
                    <path fill="#FFF" stroke="#000" d="M20.454 33.761l2.167-3.881h11.827c2.486 0 4.5-2.015 4.5-4.5V5c0-2.485-2.014-4.5-4.5-4.5H5C2.515.5.5 2.515.5 5v20.38c0 2.485 2.015 4.5 4.5 4.5h10.667l2.167 3.881c.136.243.336.443.579.578.723.404 1.637.145 2.04-.578z"/>
                    <path fill="#CDFFFB" d="M21.766 27.629l-1.816 3.523c-.253.491-.857.684-1.347.43-.185-.094-.336-.245-.431-.43l-1.817-3.523H6c-1.657 0-3-1.343-3-3V6c0-1.657 1.343-3 3-3h26.487c1.657 0 3 1.343 3 3v18.629c0 1.657-1.343 3-3 3h-10.72z" opacity=".763"/>
                    <path fill="#FFF" stroke="#000" d="M33.454 41.761l2.167-3.881h11.827c2.486 0 4.5-2.015 4.5-4.5V13c0-2.485-2.014-4.5-4.5-4.5H18c-2.485 0-4.5 2.015-4.5 4.5v20.38c0 2.485 2.015 4.5 4.5 4.5h10.667l2.167 3.881c.136.243.336.443.579.578.723.404 1.637.145 2.04-.578z"/>
                    <path fill="#CDFFFB" d="M34.55 36l-1.65 3.415c-.24.498-.838.706-1.335.466-.203-.098-.367-.262-.465-.466L29.45 36H19c-1.657 0-3-1.343-3-3V14c0-1.657 1.343-3 3-3h28c1.657 0 3 1.343 3 3v19c0 1.657-1.343 3-3 3H34.55z"/>
                    <circle cx="24" cy="24" r="2" fill="#056BFF"/>
                    <circle cx="33" cy="24" r="2" fill="#056BFF"/>
                    <circle cx="42" cy="24" r="2" fill="#056BFF"/>
                </g>
            </g>
        </g>
    </g>
</svg>
