<svg xmlns="http://www.w3.org/2000/svg" xmlns:xlink="http://www.w3.org/1999/xlink" width="200" height="40" viewBox="0 0 200 40">
    <defs>
        <path id="vzrvejy8va" d="M0 18.224L166.496 18.224 166.496 0.011 0 0.011z"/>
    </defs>
    <g fill="none" fill-rule="evenodd">
        <g>
            <g>
                <path fill="#FF3C42" d="M143.753 5.775L147.905 5.775 147.905 15.585 150.346 15.585 150.346 5.775 154.497 5.775 154.497 3.56 143.753 3.56z" transform="translate(16 11)"/>
                <g transform="translate(16 11) translate(.8 .455)">
                    <path fill="#FF3C42" d="M52.547 13.724c-2.43 0-4.332-2.086-4.332-4.607 0-2.52 1.902-4.538 4.332-4.538 2.43 0 4.332 2.017 4.332 4.538 0 2.521-1.903 4.607-4.332 4.607m0-11.322c-3.69 0-6.761 3.025-6.761 6.715s3.07 6.715 6.76 6.715 6.762-3.025 6.762-6.715-3.071-6.715-6.761-6.715M61.253 15.13L63.694 15.13 63.694 5.32 70.837 5.32 70.837 15.13 73.278 15.13 73.278 3.105 61.253 3.105z"/>
                    <path fill="#FF3C42" d="M45.528 3.105L42.454 3.105 36.373 9.072 42.793 15.13 45.957 15.13 39.425 9.072zM33.932 3.105L33.932 15.13 36.373 15.13 36.373 9.072 36.373 3.105zM74.732 15.13L77.534 15.13 81.377 7.512 85.22 15.13 88.022 15.13 81.377 2.766zM119.468 15.13L122.204 15.13 125.778 8.016 129.352 15.13 132.087 15.13 125.778 2.766zM103.262 8.009L97.501 8.009 97.501 3.105 95.059 3.105 95.059 15.13 97.501 15.13 97.501 10.225 103.262 10.225 103.262 15.13 105.703 15.13 105.703 3.105 103.262 3.105zM164.055 8.009L158.294 8.009 158.294 3.105 155.852 3.105 155.852 15.13 158.294 15.13 158.294 10.225 164.055 10.225 164.055 15.13 166.496 15.13 166.496 3.105 164.055 3.105zM136.034 12.914L136.034 3.105 133.593 3.105 133.593 12.914 133.593 15.13 143.363 15.13 143.363 12.914zM108.293 3.105L108.293 15.13 118.03 15.13 118.03 12.914 110.734 12.914 110.734 10.225 118.03 10.225 118.03 8.009 110.734 8.009 110.734 5.32 118.03 5.32 118.03 3.105z"/>
                    <mask id="7tkzm4gcsb" fill="#fff">
                        <use xlink:href="#vzrvejy8va"/>
                    </mask>
                    <path fill="#FF3C42" d="M18.193 18.224L22.811 18.224 22.811 11.266 18.193 11.266zM18.193 6.968L22.811 6.968 22.811.011 18.193.011z" mask="url(#7tkzm4gcsb)"/>
                    <path fill="#056BFF" d="M18.193 6.968L11.406 6.968 11.406 0.021 6.787 0.021 6.787 6.968 0 6.968 0 11.266 6.787 11.266 6.787 18.213 11.406 18.213 11.406 11.266 18.193 11.266z" mask="url(#7tkzm4gcsb)"/>
                </g>
            </g>
        </g>
    </g>
</svg>
